<svg width="50" height="50" viewBox="0 0 50 50" fill="none" xmlns="http://www.w3.org/2000/svg">
<path fill-rule="evenodd" clip-rule="evenodd" d="M0.688477 5.83422C0.688477 2.99224 2.99235 0.688354 5.83433 0.688354H44.1657C47.0078 0.688354 49.3116 2.99224 49.3116 5.83422V44.1658C49.3116 47.0076 47.0078 49.3116 44.1657 49.3116H5.83435C2.99237 49.3116 0.688477 47.0076 0.688477 44.1658V5.83422ZM9.18983 16.5761C6.6356 16.5761 4.56497 18.6467 4.56497 21.201C4.56497 23.3743 6.07831 25.2545 8.20151 25.7189L12.2445 26.6033C13.1016 26.7908 13.7135 27.551 13.7135 28.4293C13.7135 29.4618 12.8763 30.2989 11.8453 30.2989H9.55816C8.74718 30.2989 8.05308 29.7812 7.79587 29.0535C7.50831 28.2399 6.6156 27.8135 5.80199 28.101C4.98837 28.3887 4.56193 29.2812 4.84949 30.0949C5.53422 32.0322 7.38166 33.4239 9.55816 33.4239H11.8453C14.6037 33.4239 16.8385 31.1864 16.8385 28.4293C16.8385 26.0835 15.2052 24.052 12.9123 23.5506L8.86931 22.6662C8.18074 22.5156 7.68997 21.9058 7.68997 21.201C7.68997 20.3726 8.36147 19.7011 9.18983 19.7011H11.8453C12.3984 19.7011 12.8938 19.9395 13.2382 20.3242C13.3999 20.5049 13.5262 20.716 13.6076 20.9464C13.8952 21.7599 14.7878 22.1864 15.6015 21.8989C16.4151 21.6114 16.8415 20.7186 16.554 19.905C16.3342 19.2832 15.9956 18.7193 15.5667 18.2401C14.6546 17.2211 13.3243 16.5761 11.8453 16.5761H9.18983ZM33.0399 21.201C33.0399 18.6467 35.1105 16.5761 37.6647 16.5761H40.3203C41.7993 16.5761 43.1297 17.2211 44.0416 18.2401C44.4705 18.7193 44.8091 19.2832 45.0289 19.905C45.3166 20.7186 44.8901 21.6114 44.0763 21.8989C43.2628 22.1864 42.3701 21.7599 42.0826 20.9464C42.0011 20.716 41.8749 20.5049 41.713 20.3242C41.3689 19.9395 40.8734 19.7011 40.3203 19.7011H37.6647C36.8363 19.7011 36.1649 20.3726 36.1649 21.201C36.1649 21.9058 36.6557 22.5156 37.3443 22.6662L41.3872 23.5506C43.6801 24.052 45.3134 26.0835 45.3134 28.4293C45.3134 31.1864 43.0786 33.4239 40.3203 33.4239H38.033C35.8566 33.4239 34.0091 32.0322 33.3245 30.0949C33.0368 29.2812 33.4632 28.3887 34.277 28.101C35.0905 27.8135 35.9832 28.2399 36.2707 29.0535C36.528 29.7812 37.2222 30.2989 38.033 30.2989H40.3203C41.3513 30.2989 42.1884 29.4618 42.1884 28.4293C42.1884 27.551 41.5766 26.7908 40.7195 26.6033L36.6764 25.7189C34.5532 25.2545 33.0399 23.3743 33.0399 21.201ZM21.9263 22.7128C21.9263 21.0495 23.2749 19.7011 24.9382 19.7011C26.6016 19.7011 27.9499 21.0495 27.9499 22.7128V27.287C27.9499 28.9503 26.6016 30.2989 24.9382 30.2989C23.2749 30.2989 21.9263 28.9503 21.9263 27.287V22.7128ZM24.9382 16.5761C21.5488 16.5761 18.8014 19.3236 18.8014 22.7128V27.287C18.8014 30.6764 21.5488 33.4239 24.9382 33.4239C28.3274 33.4239 31.0749 30.6764 31.0749 27.287V22.7128C31.0749 19.3236 28.3274 16.5761 24.9382 16.5761Z" fill="white"/>
</svg>
