<svg width="50" height="48" viewBox="0 0 50 48" fill="none" xmlns="http://www.w3.org/2000/svg">
<path d="M50.0006 13.5864C49.9979 13.0766 49.8713 12.5751 49.6318 12.1251C49.3923 11.6751 49.047 11.29 48.6256 11.0031L34.0423 1.08641C33.5298 0.736187 32.9235 0.548818 32.3027 0.548818C31.6819 0.548818 31.0756 0.736187 30.5631 1.08641L18.3756 10.0656C18.194 10.1977 17.9752 10.2688 17.7506 10.2688C17.526 10.2688 17.3072 10.1977 17.1256 10.0656L4.97978 1.08641C4.50834 0.738539 3.94859 0.530207 3.36443 0.485191C2.78027 0.440175 2.19521 0.560288 1.67604 0.831823C1.15686 1.10336 0.724481 1.51538 0.428234 2.02086C0.131988 2.52634 -0.016189 3.10492 0.000614437 3.69058V34.4197C0.00333325 34.9295 0.129903 35.431 0.369429 35.881C0.608954 36.3311 0.954258 36.7161 1.37561 37.0031L15.9589 46.9197C16.4715 47.27 17.0778 47.4573 17.6985 47.4573C18.3193 47.4573 18.9256 47.27 19.4381 46.9197L31.5839 37.9822C31.7656 37.8501 31.9844 37.779 32.2089 37.779C32.4335 37.779 32.6523 37.8501 32.8339 37.9822L45.0215 46.9197C45.5625 47.3074 46.2101 47.5184 46.8756 47.5239C47.2868 47.5267 47.6944 47.4477 48.0748 47.2917C48.4552 47.1356 48.8008 46.9055 49.0915 46.6148C49.3822 46.3241 49.6123 45.9785 49.7684 45.5981C49.9244 45.2177 50.0034 44.8101 50.0006 44.3989V13.5864ZM19.7923 14.6906C19.7889 14.5283 19.825 14.3676 19.8976 14.2224C19.9702 14.0772 20.0771 13.9519 20.2089 13.8572L29.3756 7.00308C29.4572 6.9534 29.5509 6.92712 29.6464 6.92712C29.742 6.92712 29.8357 6.9534 29.9173 7.00308C29.9874 7.03379 30.0499 7.07958 30.1003 7.1372C30.1507 7.19481 30.1878 7.26283 30.2089 7.33641V33.3156C30.2123 33.4779 30.1762 33.6385 30.1036 33.7837C30.031 33.9289 29.9242 34.0543 29.7923 34.1489L20.6256 41.0031C20.544 41.0528 20.4503 41.079 20.3548 41.079C20.2592 41.079 20.1656 41.0528 20.0839 41.0031C20.0138 40.9724 19.9513 40.9266 19.9009 40.869C19.8505 40.8113 19.8134 40.7433 19.7923 40.6697V14.6906ZM4.16728 6.77391C4.16511 6.67454 4.19141 6.57661 4.24309 6.49171C4.29478 6.4068 4.36968 6.33846 4.45895 6.29474C4.54055 6.24507 4.63425 6.21879 4.72978 6.21879C4.82532 6.21879 4.91901 6.24507 5.00061 6.29474L15.2089 13.8156C15.3371 13.9137 15.4413 14.0397 15.5135 14.1841C15.5857 14.3285 15.624 14.4875 15.6256 14.6489V40.6697C15.6259 40.7634 15.6008 40.8555 15.5532 40.9361C15.5055 41.0168 15.437 41.0831 15.3548 41.1281C15.2718 41.1737 15.1786 41.1976 15.0839 41.1976C14.9893 41.1976 14.8961 41.1737 14.8131 41.1281L4.62561 34.1489C4.48441 34.0557 4.3686 33.9288 4.28859 33.7797C4.20859 33.6306 4.1669 33.464 4.16728 33.2947V6.77391ZM45.8339 41.2322C45.8361 41.3316 45.8098 41.4295 45.7581 41.5144C45.7065 41.5994 45.6316 41.6677 45.5423 41.7114C45.4607 41.7611 45.367 41.7874 45.2714 41.7874C45.1759 41.7874 45.0822 41.7611 45.0006 41.7114L34.7923 34.2531C34.6641 34.155 34.5599 34.0289 34.4877 33.8845C34.4155 33.7401 34.3772 33.5812 34.3756 33.4197V7.33641C34.3754 7.24272 34.4004 7.15069 34.448 7.07003C34.4957 6.98936 34.5643 6.92305 34.6464 6.87808C34.7294 6.83249 34.8226 6.80858 34.9173 6.80858C35.012 6.80858 35.1051 6.83249 35.1881 6.87808L45.3756 13.8156C45.5168 13.9088 45.6326 14.0357 45.7126 14.1848C45.7926 14.3339 45.8343 14.5005 45.8339 14.6697V41.2322Z" fill="white"/>
</svg>
