<svg width="50" height="50" viewBox="0 0 50 50" fill="none" xmlns="http://www.w3.org/2000/svg">
<path d="M45.3125 38.5417C46.1412 38.5417 46.9362 38.2123 47.5223 37.6262C48.1083 37.0402 48.4375 36.2454 48.4375 35.4167V26.0417C48.4373 25.0421 48.0402 24.0837 47.3333 23.3771L42.1875 18.2312H7.8125L2.66667 23.3771C1.95985 24.0837 1.56267 25.0421 1.5625 26.0417V35.4167C1.5625 36.2454 1.89174 37.0402 2.47779 37.6262C3.06383 38.2123 3.85871 38.5417 4.6875 38.5417H45.3125Z" stroke="white" stroke-width="1.5" stroke-linecap="round" stroke-linejoin="round"/>
<path d="M7.8125 18.2312L11.4021 8.64787C11.7261 7.7901 12.3038 7.05143 13.0583 6.53035C13.8127 6.00926 14.7081 5.73049 15.625 5.7312H34.375C35.2919 5.73079 36.1871 6.00968 36.9415 6.53072C37.6958 7.05176 38.2737 7.79027 38.5979 8.64787L42.1875 18.2312H7.8125Z" stroke="white" stroke-width="1.5" stroke-linecap="round" stroke-linejoin="round"/>
<path d="M7.8125 18.2312L4.6875 15.1062H1.5625" stroke="white" stroke-width="1.5" stroke-linecap="round" stroke-linejoin="round"/>
<path d="M42.1875 18.2312L45.3125 15.1062H48.4375" stroke="white" stroke-width="1.5" stroke-linecap="round" stroke-linejoin="round"/>
<path d="M4.6875 38.5417V41.6667C4.6875 42.4955 5.01675 43.2905 5.60279 43.8765C6.18883 44.4626 6.98371 44.7917 7.8125 44.7917C8.64129 44.7917 9.43617 44.4626 10.0222 43.8765C10.6082 43.2905 10.9375 42.4955 10.9375 41.6667V38.5417H4.6875Z" stroke="white" stroke-width="1.5" stroke-linecap="round" stroke-linejoin="round"/>
<path d="M45.3125 38.5417V41.6667C45.3125 42.4955 44.9833 43.2905 44.3973 43.8765C43.8112 44.4626 43.0162 44.7917 42.1875 44.7917C41.3587 44.7917 40.5638 44.4626 39.9777 43.8765C39.3917 43.2905 39.0625 42.4955 39.0625 41.6667V38.5417H45.3125Z" stroke="white" stroke-width="1.5" stroke-linecap="round" stroke-linejoin="round"/>
<path d="M17.3959 32.2917C16.8554 32.2922 16.3241 32.1526 15.8538 31.8863C15.3835 31.6201 14.9903 31.2365 14.7125 30.773L11.8479 25.9959C11.5701 25.533 11.1771 25.1501 10.7072 24.8842C10.2373 24.6184 9.70655 24.4788 9.16667 24.4792H1.9021" stroke="white" stroke-width="1.5" stroke-linecap="round" stroke-linejoin="round"/>
<path d="M48.0979 24.4792H40.8333C40.2937 24.4792 39.7635 24.619 39.2939 24.8847C38.8243 25.1505 38.4318 25.5334 38.1541 25.9959L35.2874 30.7751C35.0097 31.2376 34.617 31.6205 34.1474 31.8863C33.6781 32.152 33.1477 32.2917 32.6083 32.2917" stroke="white" stroke-width="1.5" stroke-linecap="round" stroke-linejoin="round"/>
<path d="M1.5625 30.7292H7.8125" stroke="white" stroke-width="1.5" stroke-linecap="round" stroke-linejoin="round"/>
<path d="M42.1875 30.7292H48.4375" stroke="white" stroke-width="1.5" stroke-linecap="round" stroke-linejoin="round"/>
<path d="M21.0938 28.3855C21.0938 28.8984 21.1948 29.4063 21.391 29.8803C21.5875 30.3542 21.8752 30.7849 22.2379 31.1476C22.6006 31.5103 23.0313 31.798 23.5052 31.9945C23.9792 32.1907 24.4871 32.2917 25 32.2917C25.5129 32.2917 26.0208 32.1907 26.4948 31.9945C26.9687 31.798 27.3994 31.5103 27.7621 31.1476C28.1248 30.7849 28.4125 30.3542 28.609 29.8803C28.8052 29.4063 28.9062 28.8984 28.9062 28.3855C28.9062 27.8726 28.8052 27.3647 28.609 26.8907C28.4125 26.4167 28.1248 25.9861 27.7621 25.6234C27.3994 25.2607 26.9687 24.973 26.4948 24.7765C26.0208 24.5803 25.5129 24.4792 25 24.4792C24.4871 24.4792 23.9792 24.5803 23.5052 24.7765C23.0313 24.973 22.6006 25.2607 22.2379 25.6234C21.8752 25.9861 21.5875 26.4167 21.391 26.8907C21.1948 27.3647 21.0938 27.8726 21.0938 28.3855Z" stroke="white" stroke-width="1.5" stroke-linecap="round" stroke-linejoin="round"/>
</svg>
